<svg width="74" height="74" viewBox="0 0 74 74" xmlns="http://www.w3.org/2000/svg"><title>BBD5329D-9C36-4F81-A0B8-0E2ED38F8D3D</title><g transform="translate(1 1)" fill="none" fill-rule="evenodd"><path d="M55.14 40.5H16.86c-.573 0-.86-.286-.86-.86 0-.572.287-.859.86-.859h38.28c.574 0 .86.287.86.86s-.286.859-.86.859zM36 51.484c-4.114 0-7.747-.911-10.898-2.734s-5.091-4.115-5.82-6.875c0-.365.051-.599.156-.703.156-.26.39-.39.703-.39H51.86c.312 0 .546.13.703.39.104.104.156.338.156.703-.73 2.76-2.67 5.052-5.82 6.875-3.151 1.823-6.784 2.734-10.899 2.734zM21.313 42.5c.885 2.135 2.695 3.893 5.43 5.273 2.734 1.38 5.82 2.07 9.257 2.07 3.386 0 6.458-.69 9.219-2.07 2.76-1.38 4.583-3.138 5.469-5.273H21.313zm21.953-7.078c-.521 0-.781-.26-.781-.781v-8.203c0-.573.26-.86.78-.86.574 0 .86.287.86.86v8.203c0 .52-.286.78-.86.78zm-7.266 0c-.573 0-.86-.26-.86-.781V22.297c0-.521.287-.781.86-.781s.86.26.86.78v12.345c0 .52-.287.78-.86.78zm-7.265 0c-.573 0-.86-.26-.86-.781v-8.203c0-.573.287-.86.86-.86.52 0 .78.287.78.86v8.203c0 .52-.26.78-.78.78z" fill="#343534"/><circle stroke="#343534" stroke-width="2" cx="36" cy="36" r="36"/></g></svg>