<svg width="17" height="17" viewBox="0 0 17 17" xmlns="http://www.w3.org/2000/svg"><title>64487759-C79E-4CF2-A30A-B75D40AAD49D</title><path d="M4.051 15.48l1.016-1.016-2.623-2.622-1.015 1.015v1.194h1.428v1.429h1.194zM9.888 5.123c0-.164-.081-.246-.245-.246a.258.258 0 0 0-.19.078l-6.049 6.05a.258.258 0 0 0-.078.19c0 .163.082.245.245.245a.258.258 0 0 0 .19-.078l6.05-6.05a.258.258 0 0 0 .077-.19zM9.286 2.98l4.643 4.643-9.286 9.285H0v-4.642L9.286 2.98zm7.622 1.071c0 .395-.137.73-.412 1.005l-1.853 1.852L10 2.266 11.853.424A1.326 1.326 0 0 1 12.857 0c.394 0 .733.141 1.016.424l2.623 2.612c.275.29.412.628.412 1.015z" fill="#FFF" fill-rule="evenodd"/></svg>