<svg width="74" height="74" viewBox="0 0 74 74" xmlns="http://www.w3.org/2000/svg"><title>B088BFBA-C6E7-4FB2-B513-C0D37BF1EBA5</title><g fill="#343534" fill-rule="evenodd"><path d="M74 37C74 16.565 57.435 0 37 0S0 16.565 0 37s16.565 37 37 37 37-16.565 37-37zM2 37C2 17.67 17.67 2 37 2s35 15.67 35 35-15.67 35-35 35S2 56.33 2 37z"/><path d="M47.406 46.594c-.416 0-1.093-.156-2.03-.469-.938.313-1.615.469-2.032.469-.781 0-1.563-.26-2.344-.782-1.042-.729-2.161-1.953-3.36-3.671-1.197-1.72-1.926-3.49-2.187-5.313-.312-2.24.26-4.219 1.719-5.937l.313-.235c.208-.208.455-.403.742-.586.286-.182.625-.377 1.015-.586.391-.208.834-.364 1.328-.468.495-.105.977-.13 1.446-.078.729.052 1.354.182 1.875.39.312.104.807.156 1.484.156.73 0 1.25-.052 1.563-.156.52-.208 1.12-.338 1.797-.39 1.718-.209 3.333.442 4.843 1.953 1.459 1.718 2.032 3.698 1.719 5.937-.208 1.771-.911 3.529-2.11 5.274-1.197 1.744-2.343 2.981-3.437 3.71-.781.521-1.562.782-2.344.782zm-2.03-2.266a.53.53 0 0 1 .39.156c.781.26 1.328.391 1.64.391.521 0 .99-.156 1.407-.469.78-.52 1.731-1.536 2.851-3.047 1.12-1.51 1.784-3.073 1.992-4.687.209-1.771-.234-3.333-1.328-4.688a5.861 5.861 0 0 0-.508-.43c-.234-.182-.65-.403-1.25-.663-.598-.26-1.158-.365-1.68-.313-.572.052-1.015.13-1.327.235-.417.208-1.146.312-2.188.312-1.042 0-1.77-.104-2.187-.313-.209-.104-.651-.182-1.328-.234-.521-.052-1.068.04-1.641.274s-1.016.481-1.328.742c-.313.26-.469.416-.469.468-1.094 1.303-1.536 2.839-1.328 4.61.208 1.614.872 3.177 1.992 4.687 1.12 1.51 2.07 2.526 2.852 3.047.468.313.937.469 1.406.469.312 0 .86-.13 1.64-.39a.53.53 0 0 1 .391-.157zm0-13.437h-.157c-.573-.105-.807-.417-.703-.938.052-.625.065-1.21.039-1.758a6.912 6.912 0 0 0-.235-1.523c-.13-.469-.273-.899-.43-1.29a7.145 7.145 0 0 0-.546-1.093 6.368 6.368 0 0 0-.547-.781 5.37 5.37 0 0 1-.39-.508l-.235-.234c-.417-.417-.443-.808-.078-1.172.417-.417.807-.417 1.172 0 .156.104.495.468 1.015 1.093.521.626 1.016 1.654 1.485 3.086a9.735 9.735 0 0 1 .39 4.415c0 .468-.26.703-.78.703zm4.609-2.813c-.938 0-1.901-.208-2.891-.625-.26-.104-.443-.338-.547-.703 0-1.094.365-2.031 1.094-2.813 1.406-1.51 3.75-1.979 7.031-1.406.208.104.417.235.625.39.104.313.13.548.078.704l-.078.156a4.657 4.657 0 0 0-.156.352c-.052.13-.13.3-.235.508l-.312.625c-.104.208-.247.43-.43.664a4.488 4.488 0 0 1-.586.625c-.208.182-.442.377-.703.586-.26.208-.534.377-.82.507-.287.13-.612.235-.977.313-.364.078-.729.117-1.093.117zm-1.641-1.953c.469.208 1.016.313 1.64.313 1.459 0 2.579-.782 3.36-2.344-2.188-.26-3.672.052-4.453.937-.365.365-.547.73-.547 1.094zM23.5 43.859c-1.042 0-1.927-.364-2.656-1.093-.73-.73-1.094-1.615-1.094-2.657 0-1.041.365-1.94 1.094-2.695.73-.755 1.614-1.133 2.656-1.133s1.94.378 2.695 1.133c.756.755 1.133 1.654 1.133 2.695 0 1.042-.377 1.927-1.133 2.657-.755.729-1.653 1.093-2.695 1.093zm0-5.859c-.573 0-1.068.208-1.484.625a2.028 2.028 0 0 0-.625 1.484c0 .573.208 1.068.625 1.485.416.416.911.625 1.484.625s1.068-.209 1.485-.625c.416-.417.625-.912.625-1.485 0-.573-.209-1.067-.625-1.484A2.028 2.028 0 0 0 23.5 38zm6.797.547c-1.042 0-1.927-.365-2.656-1.094-.73-.729-1.094-1.614-1.094-2.656s.365-1.94 1.094-2.695c.729-.756 1.614-1.133 2.656-1.133s1.94.377 2.695 1.133c.756.755 1.133 1.653 1.133 2.695 0 1.042-.377 1.927-1.133 2.656-.755.73-1.653 1.094-2.695 1.094zm0-5.938c-.573 0-1.068.222-1.484.664-.417.443-.625.951-.625 1.524 0 .573.208 1.068.625 1.484.416.417.911.625 1.484.625s1.068-.208 1.484-.625c.417-.416.625-.911.625-1.484s-.208-1.08-.625-1.524c-.416-.442-.911-.664-1.484-.664zm.86 14.61c-1.042 0-1.928-.365-2.657-1.094-.729-.73-1.094-1.615-1.094-2.656 0-1.042.365-1.94 1.094-2.696.73-.755 1.615-1.132 2.656-1.132 1.042 0 1.94.377 2.696 1.132.755.756 1.133 1.654 1.133 2.696 0 1.041-.378 1.927-1.133 2.656-.755.73-1.654 1.094-2.696 1.094zm0-5.86c-.574 0-1.068.209-1.485.625a2.028 2.028 0 0 0-.625 1.485c0 .573.208 1.067.625 1.484.417.417.911.625 1.484.625s1.068-.208 1.485-.625c.416-.417.625-.911.625-1.484s-.209-1.068-.625-1.485a2.028 2.028 0 0 0-1.485-.625zm-6.407-9.375c-.104 0-.26-.052-.469-.156-1.354-1.354-1.979-2.656-1.875-3.906.157-1.927 1.72-3.672 4.688-5.235.26-.208.547-.208.86 0 .26.157.39.417.39.782a11.8 11.8 0 0 0 .312 3.828c.209.885 0 1.77-.625 2.656-.416.521-.99.99-1.718 1.406-.73.417-1.25.625-1.563.625zm1.875-7.109c-1.667 1.042-2.526 2.11-2.578 3.203-.052.73.26 1.432.938 2.11 1.614-.678 2.291-1.485 2.03-2.422-.103-.573-.234-1.537-.39-2.891zm-2.5 9.844a.742.742 0 0 1-.625-.313c-.833-1.094-1.797-1.797-2.89-2.11-1.094-.312-1.875-.416-2.344-.312-.469.105-.834.235-1.094.391-.469.26-.833.13-1.094-.39-.208-.47-.078-.834.39-1.094a4.26 4.26 0 0 1 .509-.196c.234-.078.677-.169 1.328-.273a6.143 6.143 0 0 1 1.953 0c.651.104 1.393.404 2.227.898.833.495 1.614 1.185 2.343 2.07.26.417.209.808-.156 1.172-.104.105-.286.157-.547.157zM36.313 54.64c-5.521 0-10.183-.782-13.985-2.344-3.802-1.563-5.703-3.49-5.703-5.781 0-1.927 1.302-3.594 3.906-5 .47-.313.86-.209 1.172.312.209.573.078.938-.39 1.094-2.032 1.146-3.047 2.344-3.047 3.594 0 1.614 1.732 3.099 5.195 4.453C26.925 52.323 31.208 53 36.313 53c5.104 0 9.388-.677 12.851-2.031 3.464-1.354 5.196-2.839 5.196-4.453 0-1.146-.938-2.292-2.813-3.438-.52-.208-.625-.573-.312-1.094.26-.468.625-.573 1.093-.312C54.776 43.078 56 44.692 56 46.516c0 2.291-1.9 4.218-5.703 5.78-3.802 1.563-8.463 2.345-13.984 2.345z"/></g></svg>