<svg width="74" height="74" viewBox="0 0 74 74" xmlns="http://www.w3.org/2000/svg"><title>163A9B09-4729-4295-9866-6ACEE9AD2268</title><g transform="translate(1 1)" fill="none" fill-rule="evenodd"><path d="M48.969 56H19.985c-1.094 0-2.032-.39-2.813-1.172C16.391 54.047 16 53.11 16 52.016c0-1.094.39-2.032 1.172-2.813.781-.781 1.719-1.172 2.813-1.172h28.984c1.094 0 2.044.39 2.851 1.172.808.781 1.211 1.719 1.211 2.813 0 1.093-.403 2.03-1.21 2.812-.808.781-1.758 1.172-2.852 1.172zm-28.984-6.328c-.625 0-1.172.234-1.641.703-.469.469-.703 1.016-.703 1.64 0 .626.234 1.172.703 1.641.469.469 1.016.703 1.64.703H48.97c.625 0 1.172-.234 1.64-.703.47-.469.704-1.015.704-1.64s-.235-1.172-.703-1.641c-.47-.469-1.016-.703-1.641-.703H19.985zm28.515-.469l-1.484-.703 7.187-17.11-4.297-4.843 1.172-1.094 5.078 5.625L48.5 49.203zM38.266 25.531c-.99 0-1.85-.351-2.578-1.054-.73-.704-1.094-1.524-1.094-2.461 0-.99.351-1.823 1.055-2.5.703-.677 1.575-1.016 2.617-1.016.99 0 1.849.339 2.578 1.016.73.677 1.094 1.51 1.094 2.5 0 .937-.365 1.757-1.094 2.46-.73.704-1.589 1.055-2.578 1.055zm0-5.39c-.573 0-1.055.182-1.446.547a1.75 1.75 0 0 0-.585 1.328c0 .52.195.95.585 1.289.391.338.873.508 1.446.508s1.041-.17 1.406-.508c.365-.339.547-.769.547-1.29 0-.52-.195-.963-.586-1.328a1.94 1.94 0 0 0-1.367-.546zm3.672 27.5c-1.355 0-2.162-.6-2.422-1.797l-.078-.078v-.157c-1.302-3.333-3.125-5.833-5.47-7.5-.728 2.084-1.77 3.646-3.124 4.688-1.875 1.51-4.193 2.11-6.953 1.797a2.19 2.19 0 0 1-1.64-.899 2.606 2.606 0 0 1-.548-1.836c.052-.677.352-1.237.899-1.68.547-.442 1.185-.611 1.914-.507 1.302.156 2.317-.078 3.047-.703.52-.365.937-.886 1.25-1.563.312-.677.52-1.25.625-1.718l.078-.782c0-.364.104-.729.312-1.093l2.032-4.454c-.313 0-.495.026-.547.078-.73.313-1.25 1.51-1.563 3.594-.052.573-.312 1.068-.781 1.485-.469.416-1.042.625-1.719.625h-.234c-.677-.052-1.276-.339-1.797-.86-.365-.52-.547-1.146-.547-1.875.573-3.802 2.083-6.25 4.531-7.343 2.344-1.198 5.157-.808 8.438 1.171.625.365 1.198.547 1.719.547.833 0 2.03-.625 3.593-1.875l.078-.078c.417-.52.977-.807 1.68-.86.703-.051 1.315.131 1.836.548.573.364.911.911 1.016 1.64.104.677-.052 1.224-.47 1.64-.728.99-1.783 1.876-3.163 2.657-1.38.781-2.8 1.198-4.258 1.25l-1.406 3.36c2.708 2.343 4.765 5.494 6.172 9.453v.156a2.468 2.468 0 0 1-.352 1.758c-.338.547-.794.924-1.367 1.133a3.287 3.287 0 0 1-.781.078zm-1.094-2.891h.078l.156.703c.104.365.39.547.86.547l.156-.078c.52-.156.73-.495.625-1.016-.99-3.49-3.047-6.51-6.172-9.062l-.469-.39 2.266-5.626h.547c2.604.156 4.844-.885 6.719-3.125l.156-.469c0-.156-.104-.338-.313-.547-.156-.104-.364-.156-.625-.156a1.06 1.06 0 0 0-.781.313c-1.25 1.666-2.865 2.5-4.844 2.5a4.779 4.779 0 0 1-2.5-.703c-2.812-1.615-5.156-2.006-7.031-1.172-1.927.885-3.099 2.89-3.516 6.015 0 .209.052.417.157.625.104.105.312.209.625.313h.156c.573 0 .86-.234.86-.703.364-2.604 1.145-4.193 2.343-4.766.677-.364 1.589-.417 2.734-.156l.86.312-2.813 6.563c-.052.052-.078.13-.078.234 0 .209-.052.573-.156 1.094-.104.52-.365 1.237-.781 2.148-.417.912-.964 1.602-1.641 2.07-.99.834-2.396 1.173-4.219 1.016h-.156c-.469 0-.755.235-.86.703-.051.209 0 .404.157.586.156.183.338.274.547.274.312.104.729.156 1.25.156 1.666 0 3.15-.52 4.453-1.562 1.354-1.146 2.344-2.813 2.969-5l.39-1.094.86.625c3.177 2.135 5.52 5.078 7.03 8.828zM20.61 56.86h3.984v1.64H20.61v-1.64zm23.125 0h3.984v1.64h-3.984v-1.64z" fill="#343534"/><circle stroke="#343534" stroke-width="2" cx="36" cy="36" r="36"/></g></svg>