<svg width="74" height="74" viewBox="0 0 74 74" xmlns="http://www.w3.org/2000/svg"><title>B4FB2CB6-F92A-4E75-BFD0-0400297299A7</title><g transform="translate(1 1)" fill="none" fill-rule="evenodd"><path d="M42.266 47.422c-2.552 0-4.727-.886-6.524-2.656-1.797-1.771-2.695-3.933-2.695-6.485 0-2.552.898-4.726 2.695-6.523 1.797-1.797 3.972-2.695 6.524-2.695s4.726.898 6.523 2.695c1.797 1.797 2.696 3.971 2.696 6.523 0 2.552-.899 4.714-2.696 6.485-1.797 1.77-3.971 2.656-6.523 2.656zm0-16.719c-2.084 0-3.854.742-5.313 2.227-1.458 1.484-2.187 3.268-2.187 5.351 0 2.084.729 3.854 2.187 5.313 1.459 1.458 3.23 2.187 5.313 2.187 2.083 0 3.854-.729 5.312-2.187 1.459-1.459 2.188-3.23 2.188-5.313 0-2.083-.73-3.867-2.188-5.351-1.458-1.485-3.229-2.227-5.312-2.227zm-.156 8.281c.312 0 .546-.13.703-.39l3.047-4.844c.312-.417.234-.807-.235-1.172-.417-.26-.807-.156-1.172.313l-3.047 4.765c-.312.521-.234.912.235 1.172.208.104.364.156.469.156zm0 0c.208 0 .416-.104.625-.312.312-.417.286-.807-.079-1.172l-4.375-3.672c-.468-.364-.859-.338-1.171.078-.365.469-.339.86.078 1.172l4.375 3.672a.75.75 0 0 0 .547.234zM37.578 42.5c-.208 0-.416-.104-.625-.313-.364-.468-.312-.859.157-1.171l4.453-3.516c.468-.365.859-.339 1.172.078.364.469.312.86-.157 1.172l-4.453 3.594c-.208.104-.39.156-.547.156zm5.86 2.031c-.417 0-.677-.208-.782-.625L41.25 38.36c-.104-.573.104-.911.625-1.015.573-.209.912 0 1.016.625l1.328 5.547c.208.468 0 .807-.625 1.015h-.156zM47.735 40h-.157l-5.625-1.094c-.573-.104-.807-.416-.703-.937.104-.625.443-.834 1.016-.625l5.625 1.015c.52.105.729.417.625.938-.052.469-.313.703-.781.703zM27.89 41.328c-1.459 0-2.735-.443-3.828-1.328-2.344-1.615-3.802-4.089-4.375-7.422-.417-2.76-.065-5.221 1.054-7.383 1.12-2.161 2.722-3.424 4.805-3.789 1.875-.312 3.646.209 5.313 1.563 1.614-1.354 3.359-1.875 5.234-1.563 1.615.313 2.943 1.146 3.984 2.5 1.146 2.292 1.615 4.35 1.407 6.172-.105.625-.417.886-.938.781-.573-.104-.807-.416-.703-.937a7.748 7.748 0 0 0-.117-2.578c-.183-.834-.404-1.459-.664-1.875l-.313-.547c-.781-.99-1.745-1.615-2.89-1.875-1.615-.26-3.1.286-4.454 1.64-.416.417-.807.417-1.171 0-1.355-1.354-2.813-1.9-4.375-1.64-1.615.26-2.865 1.302-3.75 3.125-.886 1.823-1.12 3.88-.704 6.172.417 2.76 1.615 4.87 3.594 6.328 1.198.885 2.396 1.198 3.594.937.573-.052 1.146-.286 1.719-.703.312-.26.65-.26 1.015 0 .573.417 1.146.651 1.719.703.26.052.625.078 1.094.078.52-.104.833.13.937.704 0 .52-.26.833-.781.937-.312.052-.833.026-1.562-.078-.73-.104-1.355-.339-1.875-.703a5.517 5.517 0 0 1-1.954.703c-.26.052-.599.078-1.015.078zm2.969-16.64c-.105 0-.157-.027-.157-.079-.573-.104-.807-.416-.703-.937.209-1.25.195-2.487-.039-3.711-.234-1.224-.534-2.148-.898-2.773l-.47-.86c-.312-.52-.233-.911.235-1.172.521-.312.912-.234 1.172.235 1.563 3.125 2.11 5.99 1.64 8.593-.103.47-.364.703-.78.703zm2.968-3.282c-1.093 0-2.161-.26-3.203-.781-.312-.208-.469-.443-.469-.703 0-.886.365-1.693 1.094-2.422 1.563-1.615 4.453-2.266 8.672-1.953.52.104.781.39.781.86 0 .156-.156.481-.468.976-.313.495-.743 1.054-1.29 1.68-.546.625-1.289 1.171-2.226 1.64a6.393 6.393 0 0 1-2.89.703zm-1.875-2.031c.677.26 1.302.39 1.875.39 1.72 0 3.23-.885 4.532-2.656h-.625c-2.553 0-4.323.495-5.313 1.485-.26.312-.417.573-.469.781zM35 55c-5.52 0-10.234-1.263-14.14-3.79-3.907-2.525-5.86-5.559-5.86-9.1 0-3.334 1.797-6.277 5.39-8.829.522-.312.912-.234 1.173.235.312.364.26.755-.157 1.172-3.177 2.135-4.765 4.609-4.765 7.421 0 3.073 1.797 5.717 5.39 7.93 3.594 2.214 7.917 3.32 12.97 3.32 5.051 0 9.374-1.106 12.968-3.32 3.594-2.213 5.39-4.857 5.39-7.93 0-2.708-1.458-5.104-4.374-7.187-.47-.365-.521-.755-.157-1.172.313-.469.677-.547 1.094-.234C53.307 36.016 55 38.88 55 42.109c0 3.542-1.953 6.576-5.86 9.102C45.236 53.737 40.522 55 35 55z" fill="#343534"/><circle stroke="#343534" stroke-width="2" cx="36" cy="36" r="36"/></g></svg>