<svg width="74" height="74" viewBox="0 0 74 74" xmlns="http://www.w3.org/2000/svg"><title>5F9D857A-D68B-4BB8-ACBF-26F8D5CBBE80</title><g transform="translate(1 1)" fill="none" fill-rule="evenodd"><path d="M20.14 48.36c0 .572-.286.859-.859.859s-.859-.287-.859-.86c0-.52.286-.78.86-.78.572 0 .859.26.859.78zm3.36 4.609c0 .52-.286.781-.86.781-.572 0-.859-.26-.859-.781 0-.573.287-.86.86-.86s.86.287.86.86zm-5 .39c0 .521-.286.782-.86.782-.572 0-.859-.26-.859-.782 0-.573.287-.859.86-.859s.86.286.86.86zm13.985-5.078c-1.042 0-1.901-.338-2.579-1.015l-6.093-6.094c-.625-.625-.964-1.406-1.016-2.344-.052-.937.182-1.745.703-2.422l15.547-20.234C39.724 15.39 40.505 15 41.391 15c.885 0 1.588.312 2.11.938L55.14 27.5c.625.625.937 1.406.937 2.344-.104.937-.52 1.666-1.25 2.187L34.672 47.578c-.73.469-1.458.703-2.187.703zm8.906-31.64c-.417 0-.755.182-1.016.547L24.828 37.422c-.677.833-.625 1.693.157 2.578l6.093 6.016c.313.364.73.56 1.25.586.521.026.964-.092 1.328-.352l20.157-15.547c.364-.208.547-.547.547-1.015.104-.313-.026-.652-.391-1.016l-11.64-11.563c-.261-.312-.574-.468-.938-.468zM27.719 50.313c-1.927 0-3.568-.678-4.922-2.032-1.354-1.354-2.031-2.995-2.031-4.922 0-1.927.677-3.567 2.031-4.922l1.172 1.172c-1.042.99-1.563 2.227-1.563 3.711 0 1.485.521 2.748 1.563 3.79 1.042 1.041 2.292 1.562 3.75 1.562 1.458 0 2.708-.521 3.75-1.563l1.172 1.172c-1.354 1.354-2.995 2.032-4.922 2.032z" fill="#343534"/><circle stroke="#343534" stroke-width="2" cx="36" cy="36" r="36"/><path d="M10.5 12.5l50 50" stroke="#343534" stroke-width="2" stroke-linecap="square"/></g></svg>