<svg width="74" height="74" viewBox="0 0 74 74" xmlns="http://www.w3.org/2000/svg"><title>A5104457-AC4C-4DCF-B98E-32B811A23C12</title><g transform="translate(1 1)" fill="none" fill-rule="evenodd"><path d="M38.813 25.156c-1.407 0-2.604-.495-3.594-1.484-.99-.99-1.484-2.188-1.484-3.594 0-1.406.494-2.604 1.484-3.594.99-.99 2.187-1.484 3.594-1.484 1.458 0 2.669.495 3.632 1.484.964.99 1.446 2.188 1.446 3.594 0 1.406-.482 2.604-1.446 3.594-.963.99-2.174 1.484-3.632 1.484zm0-8.515a3.18 3.18 0 0 0-2.383 1.015 3.373 3.373 0 0 0-.977 2.422c0 .99.326 1.81.977 2.461.65.651 1.445.977 2.383.977.99 0 1.81-.326 2.46-.977.652-.651.977-1.471.977-2.46 0-.938-.325-1.746-.976-2.423s-1.472-1.015-2.461-1.015zm6.015 38.28c-.573 0-.99-.077-1.25-.233-.625-.313-1.054-.808-1.289-1.485-.234-.677-.195-1.354.117-2.031l3.125-6.25-5.468-2.656h-2.657L23.5 52.656c-.52.417-1.041.625-1.562.625-.834 0-1.537-.364-2.11-1.093-.416-.626-.599-1.277-.547-1.954.105-.78.443-1.38 1.016-1.797l10-7.5h-.078c-.208.105-.469.157-.781.157-1.302 0-2.136-.625-2.5-1.875l-2.657-8.282 10.782-5.39 7.656.625 9.062 7.5c.573.469.86 1.068.86 1.797.052.729-.13 1.406-.547 2.031-.469.573-1.08.885-1.836.938-.755.052-1.393-.157-1.914-.626l-4.297-3.593v4.14l8.438 4.141-5.313 11.016c-.365.937-1.146 1.406-2.344 1.406zM36.86 40.548h3.671l7.188 3.516-3.75 7.734c-.26.625-.104 1.094.469 1.406l.078.078h.312c.313 0 .6-.182.86-.547l4.609-9.453-7.89-3.828v-8.672l7.03 5.86c.313.208.495.312.548.312.364 0 .65-.156.859-.469.156-.26.208-.468.156-.625 0-.26-.13-.52-.39-.78l-8.594-7.188-6.719-.547-9.14 4.453 2.187 7.031c.208.469.547.703 1.016.703h.078c.156-.052.364-.26.625-.625a.882.882 0 0 0 .078-.625l-1.719-5.468 5.39-2.657.079 10-12.578 9.688c-.26.156-.391.364-.391.625 0 .156.052.39.156.703l.078.078c.157.26.417.39.782.39.208 0 .364-.051.468-.156L36.86 40.547zm-6.25-6.797l1.25 3.984c.208.625.156 1.302-.157 2.032L31.47 40l-.078.156 1.015-.703-.078-6.562-1.718.859z" fill="#343534"/><circle stroke="#343534" stroke-width="2" cx="36" cy="36" r="36"/></g></svg>