<svg width="74" height="74" viewBox="0 0 74 74" xmlns="http://www.w3.org/2000/svg"><title>C3D03154-31F4-44C9-A775-C29F8A447A59</title><g transform="translate(1 1)" fill="none" fill-rule="evenodd"><path d="M20.922 50.39c-2.083 0-3.568-1.145-4.453-3.437-.781-1.98-.677-4.622.312-7.93.99-3.307 2.526-5.56 4.61-6.757.729-.417 1.42-.912 2.07-1.485.651-.573 1.185-1.133 1.602-1.68.416-.546.794-1.067 1.132-1.562.339-.495.586-.872.743-1.133l.234-.468v-.157c2.656-4.114 6.198-6.172 10.625-6.172.73 0 1.432.052 2.11.157.677.104 1.184.208 1.523.312.338.104.534.182.586.235.052 0 .195.052.43.156.234.104.494.286.78.547.287.26.482.573.587.937.208.677.026 1.406-.547 2.188-.209.26-.39.573-.547.937-.156.365-.26.651-.313.86l-.078.39a11.156 11.156 0 0 1-1.093 4.531c-.678 1.407-1.276 2.383-1.797 2.93-.521.547-.886.872-1.094.977-.104.104-.182.156-.234.156-.105 0-.495.182-1.172.547-.677.364-1.485 1.041-2.422 2.031-.938.99-1.589 2.11-1.953 3.36a12.153 12.153 0 0 1-3.438 5.624c-1.667 1.563-3.411 2.683-5.234 3.36-1.094.364-2.084.547-2.969.547zm7.734-23.75c-1.927 3.386-4.062 5.756-6.406 7.11-1.719.938-3.008 2.865-3.867 5.781-.86 2.917-.977 5.183-.352 6.797.573 1.615 1.537 2.422 2.891 2.422.677 0 1.484-.156 2.422-.469 1.615-.573 3.151-1.55 4.61-2.93A11.051 11.051 0 0 0 31 40.392c.365-1.355 1.055-2.592 2.07-3.711 1.016-1.12 1.85-1.888 2.5-2.305.652-.417 1.237-.73 1.758-.938 2.136-1.822 3.255-4.244 3.36-7.265 0-.99.416-2.031 1.25-3.125.208-.208.312-.417.312-.625-.052-.208-.312-.39-.781-.547l-.156-.078a6.04 6.04 0 0 0-.586-.156 20.669 20.669 0 0 0-1.797-.313 8.573 8.573 0 0 0-1.133-.078c-3.802 0-6.849 1.797-9.14 5.39zm-.468 23.438c-1.25 0-2.448-.156-3.594-.469-.52-.104-.73-.442-.625-1.015.104-.521.443-.73 1.016-.625 3.177.833 6.067.52 8.671-.938 2.865-1.614 6.016-1.797 9.454-.547 2.604.313 5.078-.625 7.421-2.812l.157-.156c.156-.105.338-.209.547-.313.208-.104.43-.208.664-.312.234-.105.507-.209.82-.313a6.17 6.17 0 0 1 .937-.234c.313 0 .521-.078.625-.235.209-.312.157-.625-.156-.937a14.619 14.619 0 0 0-.508-.899c-.234-.39-.69-1.002-1.367-1.836a6.982 6.982 0 0 0-2.383-1.914c-.911-.442-2.07-.846-3.476-1.21-1.406-.365-2.969-.287-4.688.234-2.187.729-4.349 1.068-6.484 1.016a.782.782 0 0 1-.625-.274c-.156-.182-.208-.378-.156-.586 0-.573.286-.86.859-.86.573.053 1.172.053 1.797 0a11.15 11.15 0 0 0 1.601-.234c.443-.104.86-.195 1.25-.273.391-.078.69-.17.899-.273l.312-.079c.053 0 .079-.026.079-.078 2.03-.469 3.84-.547 5.43-.234 1.588.312 2.942.807 4.062 1.484 1.12.677 2.044 1.433 2.773 2.266.73.833 1.263 1.523 1.602 2.07.338.547.508.847.508.899.468.937.52 1.77.156 2.5-.313.625-.938 1.015-1.875 1.172-.365 0-.742.078-1.133.234-.39.156-.664.286-.82.39l-.313.235c-2.292 2.187-5.208 3.281-8.75 3.281-.052-.052-.13-.078-.234-.078l-.156-.078a2.421 2.421 0 0 0-.47-.156 15.265 15.265 0 0 0-.702-.157c-.26-.052-.547-.104-.86-.156a10.934 10.934 0 0 0-1.015-.117c-.365-.026-.756-.04-1.172-.04-.417 0-.82.04-1.211.118-.39.078-.807.195-1.25.352-.443.156-.873.338-1.29.547-1.926 1.093-4.036 1.64-6.327 1.64zm6.093-23.36c-.26 0-.468-.077-.625-.234-.416-.364-.416-.755 0-1.172l.782-.78c.416-.417.807-.417 1.172 0 .364.416.364.807 0 1.171l-.782.781a.75.75 0 0 1-.547.235zm-3.828 3.907c-.26 0-.468-.078-.625-.234-.364-.365-.364-.756 0-1.172l.782-.703c.364-.47.755-.47 1.171 0 .365.364.365.755 0 1.172l-.78.703a.75.75 0 0 1-.548.234zm-4.765 4.922c-.26 0-.47-.078-.625-.234-.417-.417-.417-.808 0-1.172l.78-.782c.418-.364.808-.364 1.173 0 .364.417.364.808 0 1.172l-.781.782a.75.75 0 0 1-.547.234zm-3.282 4.687c-.052 0-.182-.052-.39-.156-.469-.26-.573-.625-.313-1.094l.547-.937c.26-.469.625-.6 1.094-.39.52.312.625.702.312 1.171l-.468.938c-.157.312-.417.468-.782.468zm13.125.625c-.416 0-.677-.208-.78-.625-.105-.573.103-.911.624-1.015l1.094-.235c.469-.104.807.105 1.016.625.104.573-.13.912-.704 1.016l-1.015.234h-.235zm5.625-1.015c-.468 0-.755-.209-.859-.625-.104-.573.13-.912.703-1.016l1.016-.234c.573-.104.911.104 1.015.625.105.573-.104.911-.625 1.015l-1.093.235h-.157zm6.954 1.25h-1.172c-.521 0-.782-.287-.782-.86 0-.52.287-.78.86-.78h1.094c.52 0 .78.286.78.858 0 .521-.26.782-.78.782zm-5.547 2.734h-.078l-1.094-.078c-.521 0-.781-.26-.781-.781 0-.573.286-.86.859-.86h1.094c.52 0 .78.287.78.86s-.26.86-.78.86zm-7.5 1.016c-.47 0-.756-.209-.86-.625-.104-.573.104-.912.625-1.016l1.094-.234c.52-.104.86.104 1.016.625.104.469-.104.807-.625 1.015l-1.094.235h-.156zm-9.297-2.188c-.052 0-.182-.052-.39-.156-.47-.26-.574-.625-.313-1.094l.547-.937c.26-.469.625-.6 1.093-.39.521.312.625.702.313 1.171l-.469.938c-.156.312-.417.468-.781.468zm-3.828 3.047a.6.6 0 0 1-.235-.078h-.156c-.52-.313-.625-.703-.312-1.172l.468-.937c.26-.47.651-.573 1.172-.313.469.26.573.625.313 1.094l-.547.937c-.156.313-.39.47-.703.47zm6.718-7.11c-.052 0-.182-.051-.39-.156-.521-.208-.625-.572-.313-1.093l.469-.938c.313-.52.703-.625 1.172-.312.52.208.625.573.312 1.093l-.546.938c-.053.313-.287.469-.704.469zm3.829-4.687a.742.742 0 0 1-.625-.312c-.417-.417-.391-.808.078-1.172l.78-.703c.418-.417.808-.39 1.173.078.364.364.338.755-.078 1.172l-.782.703a.75.75 0 0 1-.546.234zm3.593-3.984a.742.742 0 0 1-.625-.313c-.364-.364-.338-.755.078-1.172l.782-.703c.468-.364.859-.338 1.172.078.364.417.364.808 0 1.172l-.86.703a.75.75 0 0 1-.547.235z" fill="#343534"/><circle stroke="#343534" stroke-width="2" cx="36" cy="36" r="36"/><path d="M10.5 12.5l50 50" stroke="#343534" stroke-width="2" stroke-linecap="square"/></g></svg>