<svg width="74" height="74" viewBox="0 0 74 74" xmlns="http://www.w3.org/2000/svg"><title>5555E923-F8B3-4F6E-994B-5BEDA8E9D0D8</title><g transform="translate(1 1)" fill="none" fill-rule="evenodd"><path d="M31.406 28.016c-1.041 0-1.927-.365-2.656-1.094-.729-.73-1.094-1.615-1.094-2.656 0-1.042.365-1.927 1.094-2.657.73-.729 1.615-1.093 2.656-1.093 1.042 0 1.927.364 2.657 1.093.729.73 1.093 1.615 1.093 2.657 0 1.041-.364 1.927-1.093 2.656-.73.729-1.615 1.094-2.657 1.094zm0-5.86c-.573 0-1.067.209-1.484.625a2.028 2.028 0 0 0-.625 1.485c0 .573.208 1.054.625 1.445.417.39.911.586 1.484.586s1.068-.195 1.485-.586c.416-.39.625-.872.625-1.445 0-.573-.209-1.068-.625-1.485a2.028 2.028 0 0 0-1.485-.625zm16.172 32.422h-.234c-.73-.104-1.328-.417-1.797-.937-.417-.417-.625-1.042-.625-1.875.26-4.167-.469-8.125-2.187-11.875.26 3.645-1.042 6.927-3.907 9.843-1.666 1.771-3.75 3.282-6.25 4.532l-.156.078c-.625.156-.963.234-1.016.234-.99 0-1.77-.52-2.343-1.562v-.078a2.738 2.738 0 0 1 0-2.032c.26-.677.703-1.146 1.328-1.406a2.71 2.71 0 0 1 .469-.352c.208-.13.625-.442 1.25-.937a15.068 15.068 0 0 0 1.601-1.445c.443-.47.99-1.081 1.64-1.836.652-.756 1.107-1.459 1.368-2.11.26-.65.495-1.393.703-2.226.208-.834.104-1.589-.312-2.266-.157-.417-.495-.976-1.016-1.68a118.714 118.714 0 0 0-3.047-3.945c-.625-.781-.99-1.25-1.094-1.406-.781-.938-.86-1.927-.234-2.969v-.39l1.562-.782.157-.156a.909.909 0 0 0 .234-.156c1.98-1.042 3.125-2.292 3.438-3.75.104-.625 0-1.302-.313-2.032-.312-.729-.651-1.302-1.016-1.718l-.468-.547c-.521-.469-.782-1.068-.782-1.797 0-.73.26-1.328.782-1.797.468-.469 1.08-.703 1.836-.703.755 0 1.367.234 1.836.703.312.26.729.716 1.25 1.367.52.651 1.041 1.68 1.562 3.086.52 1.407.703 2.787.547 4.14-.156 1.355-.651 2.683-1.484 3.985l3.359 4.61c4.375 5.729 6.354 12.317 5.937 19.765a2.563 2.563 0 0 1-.82 1.719 2.47 2.47 0 0 1-1.758.703zm-5.156-18.75l.39.703c2.97 4.48 4.22 9.61 3.75 15.39 0 .261.079.47.235.626.26.26.495.39.703.39h.078a.85.85 0 0 0 .664-.312c.183-.208.274-.417.274-.625.416-7.031-1.459-13.23-5.625-18.594l-4.219-5.703.39-.547c.834-.885 1.38-2.057 1.641-3.515a8.226 8.226 0 0 0 0-1.602 5.665 5.665 0 0 0-.351-1.523 34.658 34.658 0 0 0-.547-1.328 6.706 6.706 0 0 0-.625-1.133 19.533 19.533 0 0 0-.625-.86 47.808 47.808 0 0 1-.508-.664l-.234-.234c-.157-.156-.378-.235-.664-.235-.287 0-.508.079-.664.235-.365.469-.365.937 0 1.406 1.822 1.823 2.578 3.724 2.265 5.703-.312 1.98-1.719 3.62-4.219 4.922a.6.6 0 0 0-.234.078l-.078.078-.781.47-.235.233c-.364.26-.364.625 0 1.094.157.157.573.638 1.25 1.446a59.05 59.05 0 0 1 2.383 3.085c.912 1.25 1.497 2.214 1.758 2.891 1.719 4.271-.755 8.672-7.422 13.203l-.078.078c-.625.209-.807.625-.547 1.25.313.417.599.625.86.625l.156-.078h.234c2.5-1.354 4.427-2.734 5.781-4.14 3.23-3.334 4.219-7.058 2.969-11.172l-.156-.625 2.031-1.016zm-19.687.938c-.313 0-.678-.105-1.094-.313a2.411 2.411 0 0 1-.703-.664 4.946 4.946 0 0 1-.508-.86 3.788 3.788 0 0 1-.274-.82c-.052-.26-.104-.494-.156-.703l-.078-.39-.078-.47.625-.546 7.5-7.578 1.172 1.172-6.64 6.64c1.614 1.094 2.395 2.032 2.343 2.813 0 .625-.39 1.12-1.172 1.484a2.08 2.08 0 0 1-.937.235zm-1.016-3.047c.26.677.52 1.067.781 1.172H23.203c-.052-.052-.547-.443-1.484-1.172zm13.36-16.563l1.25 1.172-3.516 3.594-1.172-1.172 3.437-3.594z" fill="#343534"/><circle stroke="#343534" stroke-width="2" cx="36" cy="36" r="36"/></g></svg>