<svg width="14" height="22" viewBox="0 0 14 22" xmlns="http://www.w3.org/2000/svg"><title>C0513A69-4889-4E6A-8531-AE5C99D2E66C</title><path d="M13.62 11.397l-9.937 9.938a.824.824 0 0 1-.603.254.824.824 0 0 1-.602-.254L.254 19.112A.824.824 0 0 1 0 18.509c0-.232.085-.433.254-.603l7.112-7.111L.254 3.683A.824.824 0 0 1 0 3.08c0-.232.085-.433.254-.602L2.478.254c.17-.17.37-.254.602-.254.233 0 .433.085.603.254l9.938 9.938c.17.17.254.37.254.603a.824.824 0 0 1-.254.602z" fill="#FFF" fill-rule="evenodd"/></svg>