<svg width="74" height="74" viewBox="0 0 74 74" xmlns="http://www.w3.org/2000/svg"><title>896FBAEE-13BC-4060-B94B-4FCB4D17DC54</title><g transform="translate(1 1)" fill="none" fill-rule="evenodd"><path d="M27.11 56.5c-.157 0-.26-.026-.313-.078-1.354-.573-2.46-2.227-3.32-4.961-.86-2.734-1.367-6.185-1.524-10.352-.104-2.552.183-4.948.86-7.187.677-2.24 1.263-3.724 1.757-4.453.495-.73.899-1.25 1.211-1.563.105-.156.209-.234.313-.234.156-.052.325-.091.508-.117.182-.026.508 0 .976.078.469.078.912.247 1.328.508.417.26.86.729 1.329 1.406.468.677.833 1.536 1.093 2.578.73 2.604.86 6.615.39 12.031 0 .417-.038 1.107-.116 2.07a249.33 249.33 0 0 1-.196 2.305c-.312 4.792-1.718 7.448-4.218 7.969h-.078zm-.313-27.266c-2.292 2.813-3.333 6.745-3.125 11.797.156 3.959.586 7.097 1.29 9.414.702 2.318 1.444 3.763 2.226 4.336 1.51-.625 2.37-2.734 2.578-6.328.104-1.98.208-3.463.312-4.453.417-5.104.313-8.906-.312-11.406-.625-2.24-1.563-3.36-2.813-3.36h-.156zm2.344 11.641c0 .573-.196 1.055-.586 1.445-.39.39-.846.586-1.367.586s-.99-.208-1.407-.625c-.416-.416-.625-.885-.625-1.406 0-.52.196-.977.586-1.367.391-.39.873-.586 1.446-.586.52 0 .976.195 1.367.586.39.39.586.846.586 1.367zm-.469 6.484c0 .417-.17.795-.508 1.133-.338.339-.716.508-1.133.508-.468 0-.859-.17-1.171-.508-.313-.338-.47-.716-.47-1.133 0-.468.157-.859.47-1.172.312-.312.703-.468 1.171-.468.417 0 .795.156 1.133.468.339.313.508.704.508 1.172zm.469-12.656c0 .469-.17.873-.508 1.211a1.653 1.653 0 0 1-1.211.508c-.469 0-.872-.17-1.21-.508a1.653 1.653 0 0 1-.509-1.21c0-.47.17-.873.508-1.212a1.653 1.653 0 0 1 1.211-.508c.469 0 .872.17 1.211.508.339.339.508.742.508 1.211zM55 43.375c-3.282 0-7.605-1.589-12.97-4.766-4.791-2.76-7.864-6.171-9.218-10.234v-.39c0-.105.078-.326.234-.665.156-.338.56-.729 1.211-1.172.651-.442 1.471-.664 2.46-.664.834 0 1.72.157 2.657.47a17.438 17.438 0 0 1 4.883 2.108c1.484.938 3.32 2.266 5.508 3.985.208.156.729.534 1.562 1.133.834.599 1.51 1.08 2.032 1.445 3.906 2.813 5.39 5.417 4.453 7.813l-.078.156c-.053.104-.105.156-.157.156-.677.417-1.536.625-2.578.625zM34.53 28.219c1.355 3.541 4.115 6.536 8.282 8.984 5.312 3.021 9.375 4.531 12.187 4.531.573 0 1.016-.078 1.328-.234.365-1.51-.963-3.36-3.984-5.547a188.293 188.293 0 0 0-3.516-2.578c-4.114-3.125-7.422-5.078-9.922-5.86-.885-.26-1.614-.39-2.187-.39-1.146 0-1.875.365-2.188 1.094zm11.875 6.015c0 .573-.208 1.068-.625 1.485a2.028 2.028 0 0 1-1.484.625 2.028 2.028 0 0 1-1.484-.625 2.028 2.028 0 0 1-.625-1.485c0-.573.208-1.067.625-1.484a2.028 2.028 0 0 1 1.484-.625c.573 0 1.068.208 1.484.625.417.417.625.911.625 1.484zm5.157 3.36c0 .469-.157.872-.47 1.21a1.528 1.528 0 0 1-1.171.508c-.469 0-.86-.169-1.172-.507a1.724 1.724 0 0 1-.469-1.211c0-.417.157-.795.47-1.133a1.528 1.528 0 0 1 1.171-.508c.469 0 .86.17 1.172.508.312.338.469.716.469 1.133zm-10.391-6.875c0 .52-.17.95-.508 1.289-.338.338-.768.508-1.289.508-.52 0-.963-.17-1.328-.508-.365-.339-.547-.768-.547-1.29 0-.52.182-.963.547-1.327a1.808 1.808 0 0 1 1.328-.547c.521 0 .95.182 1.29.547.338.364.507.807.507 1.328zm-14.219-1.485c-.468 0-.755-.26-.86-.78 0-3.126.261-5.444.782-6.954.834-2.656 2.344-4.323 4.531-5 .47-.104.808.078 1.016.547.156.573-.026.937-.547 1.094-1.458.416-2.539 1.497-3.242 3.242-.703 1.745-1.003 3.268-.898 4.57.104 1.302.13 2.083.078 2.344 0 .52-.26.833-.782.937h-.078zm6.64-.234h-.233c-1.771-.625-3.112-1.615-4.024-2.969-.911-1.354-1.328-2.669-1.25-3.945a40.1 40.1 0 0 1 .352-3.477c.208-.52.573-.703 1.093-.547.47.209.651.547.547 1.016a8.431 8.431 0 0 0-.234.82c-.052.235-.078.795-.078 1.68 0 .886.104 1.64.312 2.266.209.625.638 1.289 1.29 1.992.65.703 1.497 1.237 2.538 1.602.47.104.651.442.547 1.015-.156.365-.442.547-.86.547z" fill="#343534"/><circle stroke="#343534" stroke-width="2" cx="36" cy="36" r="36"/></g></svg>