<svg width="74" height="74" viewBox="0 0 74 74" xmlns="http://www.w3.org/2000/svg"><title>6B2A903E-572E-4EC2-87F5-A0425E0A9052</title><g transform="translate(1 1)" fill="none" fill-rule="evenodd"><path d="M51.328 46.563c-.677 0-1.276-.26-1.797-.782-.52-.52-.78-1.12-.78-1.797 0-.677.26-1.276.78-1.797.521-.52 1.12-.78 1.797-.78.677 0 1.276.26 1.797.78.521.521.781 1.12.781 1.797 0 .677-.26 1.276-.78 1.797-.522.521-1.12.782-1.798.782zm0-3.516a.904.904 0 0 0-.664.273.904.904 0 0 0-.273.664c0 .625.312.938.937.938s.938-.313.938-.938a.904.904 0 0 0-.274-.664.904.904 0 0 0-.664-.273zM39.844 27.734c-1.406 0-2.604-.494-3.594-1.484-.99-.99-1.484-2.187-1.484-3.594 0-1.406.495-2.604 1.484-3.593.99-.99 2.188-1.485 3.594-1.485 1.406 0 2.604.495 3.594 1.485.99.99 1.484 2.187 1.484 3.593 0 1.407-.495 2.604-1.484 3.594-.99.99-2.188 1.484-3.594 1.484zm0-8.515c-.99 0-1.81.338-2.461 1.015a3.373 3.373 0 0 0-.977 2.422c0 .99.326 1.81.977 2.461.651.651 1.471.977 2.46.977.938 0 1.746-.326 2.423-.977.677-.65 1.015-1.471 1.015-2.46 0-.938-.338-1.746-1.015-2.423-.677-.677-1.485-1.015-2.422-1.015zM50 57.5h-.156c-.886 0-1.654-.3-2.305-.898-.65-.6-1.002-1.316-1.054-2.149-.157-4.427-2.97-8.255-8.438-11.484-2.083.99-4.336 2.5-6.758 4.531-2.422 2.031-4.18 4.48-5.273 7.344-.677 1.406-1.719 2.11-3.125 2.11l-.938-.235h-.234c-.833-.26-1.458-.808-1.875-1.64-.365-.834-.39-1.694-.078-2.579 2.187-5.73 6.536-10.495 13.047-14.297l.234-4.453c-.677.104-1.719.443-3.125 1.016l.625 1.015c.365.365.313.755-.156 1.172l-1.485 1.016c-.104.156-.312.234-.625.234-.156 0-.364-.13-.625-.39l-1.015-1.485c-1.406.26-2.5-.208-3.281-1.406-.73-1.25-.73-2.448 0-3.594l-1.329-1.875c-2.552.156-4.479-1.042-5.78-3.594-.938-1.77-1.12-3.437-.548-5 .417-1.354 1.146-2.291 2.188-2.812 1.25-.625 2.59-.612 4.023.039 1.433.651 2.54 1.706 3.32 3.164 1.303 2.552 1.25 4.74-.156 6.563l1.094 1.64c2.604-1.302 5.417-2.083 8.438-2.344.364-.052.911-.078 1.64-.078 7.24 0 13.177 3.49 17.813 10.469.52.677.703 1.484.547 2.422-.157.833-.678 1.562-1.563 2.187-.625.365-1.198.547-1.719.547-1.302 0-2.213-.468-2.734-1.406-1.25-2.083-2.839-3.802-4.766-5.156l-.39 2.5c6.146 4.166 9.4 9.323 9.765 15.468.052.834-.234 1.615-.86 2.344-.572.625-1.353.99-2.343 1.094zM38.203 41.172a.87.87 0 0 1 .39.078c6.095 3.594 9.298 7.917 9.61 12.969.104 1.041.651 1.562 1.64 1.562H50c.417 0 .781-.208 1.094-.625.26-.26.39-.65.39-1.172-.312-5.677-3.463-10.494-9.453-14.453-.364-.26-.494-.547-.39-.86l.703-4.374c.104-.26.26-.469.469-.625.208-.156.468-.156.78 0 2.5 1.51 4.61 3.62 6.329 6.328.365.469.833.703 1.406.703.26 0 .573-.13.938-.39.416-.313.65-.678.703-1.094.104-.417.026-.808-.234-1.172-4.271-6.458-9.74-9.688-16.407-9.688-.729 0-1.25.026-1.562.078-2.76.26-5.573 1.094-8.438 2.5-.468.209-.833.13-1.093-.234l-1.797-2.812c-.209-.26-.183-.625.078-1.094.573-.521.898-1.263.976-2.227.078-.963-.143-1.914-.664-2.851-1.041-1.823-2.37-2.735-3.984-2.735-.469 0-.86.078-1.172.235-.73.729-1.172 1.406-1.328 2.031-.365 1.25-.208 2.5.469 3.75.52.938 1.21 1.654 2.07 2.148.86.495 1.68.665 2.46.508.313-.052.6.052.86.313l1.875 2.89c.26.313.235.625-.078.938-.52.677-.599 1.38-.234 2.11.52.78 1.146.989 1.875.624.469-.26.833-.156 1.094.313l.859 1.25.156-.078-.86-1.172c-.155-.157-.182-.39-.077-.703.104-.26.26-.417.468-.47 1.667-.832 3.516-1.405 5.547-1.718.313 0 .547.078.703.235.157.156.235.364.235.624l-.313 5.938c0 .156-.156.39-.468.703C27.578 43.1 23.334 47.63 21.25 53.047c-.156.469-.13.885.078 1.25.157.417.443.703.86.86h.078c.156.051.338.077.547.077.677 0 1.224-.364 1.64-1.093.677-1.771 1.64-3.438 2.89-5 1.25-1.563 2.592-2.878 4.024-3.946 1.433-1.067 2.644-1.9 3.633-2.5a23.7 23.7 0 0 1 2.735-1.445c.104-.052.26-.078.468-.078z" fill="#343534"/><circle stroke="#343534" stroke-width="2" cx="36" cy="36" r="36"/></g></svg>