<svg width="74" height="74" viewBox="0 0 74 74" xmlns="http://www.w3.org/2000/svg"><title>488DCA0A-757B-4A33-83D3-670976680342</title><g transform="translate(1 1)" fill="none" fill-rule="evenodd"><path d="M51.156 55.5H20.844c-1.354 0-2.5-.469-3.438-1.406C16.47 53.156 16 52.01 16 50.656V20.344c0-1.354.469-2.5 1.406-3.438.938-.937 2.084-1.406 3.438-1.406h30.312c1.355 0 2.5.469 3.438 1.406.937.938 1.406 2.084 1.406 3.438v30.312c0 1.354-.469 2.5-1.406 3.438-.938.937-2.083 1.406-3.438 1.406zM20.844 17.14c-.886 0-1.64.313-2.266.938a3.087 3.087 0 0 0-.937 2.266v30.312c0 .886.312 1.64.937 2.266.625.625 1.38.937 2.266.937h30.312c.886 0 1.641-.312 2.266-.937s.938-1.38.938-2.266V20.344c0-.886-.313-1.64-.938-2.266a3.087 3.087 0 0 0-2.266-.937H20.844zM41.313 28.47H30.688c-1.927 0-3.177-.912-3.75-2.735l-1.485-4.375c-.625-1.51-.468-2.89.469-4.14.885-1.146 1.98-1.719 3.281-1.719h13.75c1.302 0 2.344.547 3.125 1.64.99 1.303 1.224 2.735.703 4.297l-1.64 4.22c-.677 1.874-1.953 2.812-3.828 2.812zM29.203 17.14c-.729 0-1.38.338-1.953 1.015-.573.99-.677 1.85-.312 2.578l1.484 4.375c.469 1.094 1.224 1.641 2.266 1.641h10.625c1.041 0 1.797-.547 2.265-1.64l1.563-4.22c.416-.885.286-1.796-.39-2.734-.522-.677-1.12-1.015-1.798-1.015h-13.75zm6.25 4.297h-1.718V19.64h-2.032v1.797h-1.718V18h5.468v3.438zm0 4.609h-5.468v-3.36h1.718v1.72h2.032v-1.72h1.718v3.36zm6.563-4.61h-1.719v-1.796h-2.031v1.797h-1.719V18h5.469v3.438zm0 4.61h-5.469v-3.36h1.719v1.72h2.031v-1.72h1.719v3.36zM29.594 53.703c-.208 0-.508-.039-.899-.117-.39-.078-.611-.117-.664-.117-1.145-.26-1.953-.6-2.421-1.016-.886-.781-1.485-2.135-1.797-4.062v-.157c-.105-1.041-.313-2.37-.625-3.984l-.547-3.203c-.313-1.875-.443-3.255-.39-4.14.051-1.72.52-3.178 1.405-4.376.99-1.458 2.709-2.396 5.157-2.812h.78c1.147 0 2.11.312 2.892.937.885.834 1.328 2.214 1.328 4.14-.052 2.032-.339 3.96-.86 5.782-.052.052-.13.26-.234.625-.26 1.042-.39 1.693-.39 1.953-.053.417.025 1.094.234 2.032.104.729.234 1.223.39 1.484.052.156.117.404.196.742.078.339.117.586.117.742.416 2.084.182 3.594-.703 4.532-1.094.677-2.084 1.015-2.97 1.015zm-.156-22.266h-.625c-1.823.26-3.151.938-3.985 2.032-.677.885-1.041 2.057-1.093 3.515-.053.521.052 1.797.312 3.828l.547 3.204c.312 1.77.52 3.125.625 4.062.469 1.719.86 2.708 1.172 2.969.469.364 1.067.625 1.797.781 1.25.26 2.109.156 2.578-.312.416-.47.52-1.51.312-3.125l-.234-1.407c0-.156-.052-.403-.156-.742-.105-.338-.157-.586-.157-.742-.26-.885-.364-1.719-.312-2.5.052-.313.143-.742.273-1.29.13-.546.222-.897.274-1.054 0-.052.013-.143.039-.273.026-.13.065-.222.117-.274.573-1.979.885-3.776.938-5.39 0-1.407-.26-2.344-.782-2.813-.156-.312-.703-.468-1.64-.468zm12.968 22.266c-.99 0-1.875-.338-2.656-1.016-.885-.937-1.12-2.473-.703-4.609.052-.156.117-.404.195-.742.078-.339.144-.586.196-.742l.234-1.407c.208-.99.287-1.666.234-2.03-.052-.261-.182-.964-.39-2.11-.104-.313-.156-.521-.156-.625-.521-1.615-.834-3.516-.938-5.703 0-1.98.417-3.36 1.25-4.14.885-.626 1.849-.938 2.89-.938h.704c2.448.416 4.166 1.354 5.156 2.812.833.99 1.302 2.422 1.406 4.297.052.885-.078 2.266-.39 4.14l-.547 3.204c-.313 1.77-.521 3.125-.625 4.062v.078c-.313 1.98-.912 3.308-1.797 3.985-.469.469-1.276.833-2.422 1.093-.677.26-1.224.391-1.64.391zm.157-22.266c-.834 0-1.433.157-1.797.47-.469.468-.703 1.405-.703 2.812.052 1.562.364 3.333.937 5.312.104.313.156.521.156.625.209.677.391 1.459.547 2.344.052.365-.052 1.198-.312 2.5-.104.73-.209 1.224-.313 1.484 0 .157-.013.313-.039.47a4.633 4.633 0 0 1-.117.507 1.676 1.676 0 0 0-.078.43c-.26 1.51-.156 2.578.312 3.203.365.469 1.25.573 2.657.312a4.199 4.199 0 0 0 1.797-.703c.416-.417.833-1.432 1.25-3.047.104-1.094.312-2.474.625-4.14l.546-3.203c.26-1.459.391-2.735.391-3.829-.104-1.562-.469-2.708-1.094-3.437-.833-1.094-2.161-1.771-3.984-2.031a3.975 3.975 0 0 0-.781-.078z" fill="#343534"/><circle stroke="#343534" stroke-width="2" cx="36" cy="36" r="36"/></g></svg>